<?xml version="1.0" encoding="utf-8"?>
<!-- Generator: Adobe Illustrator 22.1.0, SVG Export Plug-In . SVG Version: 6.00 Build 0)  -->
<svg version="1.1" id="Lager_1" xmlns="http://www.w3.org/2000/svg" xmlns:xlink="http://www.w3.org/1999/xlink" x="0px" y="0px"
	 viewBox="0 0 697.8 283.4" style="enable-background:new 0 0 697.8 283.4;" xml:space="preserve">
<style type="text/css">
	.st0{fill:#0058A3;}
	.st1{fill:#FFDB00;}
</style>
<title>IKEA_2018_sRGB</title>
<path class="st0" d="M697.7,283.4H0V0h697.8L697.7,283.4L697.7,283.4z"/>
<path class="st1" d="M13.6,141.7c0,68.5,140.5,125.4,335.3,125.4s335.2-56.8,335.2-125.4S543.6,16.3,348.8,16.3
	S13.6,73.2,13.6,141.7z"/>
<path class="st0" d="M329.1,181.9c2.2,3.2,4.6,6.2,7.4,8.9H261c0-3-2.8-9.1-6.1-13.9s-20.5-31.1-20.5-31.1v36.1c0,3,0,5.9,1.5,8.9
	H173c1.5-3,1.5-5.9,1.5-8.9V96.1c0-3,0-5.9-1.5-8.9h62.9c-1.5,3-1.5,5.9-1.5,8.9v37.4c0,0,20.1-26.1,24.7-32.3
	c3.5-4.6,7.8-11.1,7.8-14.1h65.6c-4.5,3-9.5,8.4-13.6,13.4c-3.6,4.4-24,29.3-24,29.3S325.1,176,329.1,181.9z M348.8,96.1v85.8
	c0,3,0,5.9-1.5,8.9h121.4v-28.7c-3,1.5-5.9,1.5-8.9,1.5h-51.1V150h49.1v-21.8h-49.1v-13.6h51.1c3,0,5.9,0,8.9,1.4V87.3H347.4
	C348.8,90.2,348.8,93.1,348.8,96.1z M637,181.9c1,3.3,2.7,6.3,4.9,8.9h-65.8c0.3-3-0.8-5.9-2-8.9c0,0-1-2.4-2.4-5.9l-0.6-1.5h-37.9
	l-0.6,1.5c0,0-1.1,2.9-2.1,5.9s-2.1,5.9-1.7,8.9h-51.9c2.1-2.6,3.7-5.6,4.7-8.9c1.7-4.7,28.7-79.1,31.1-85.8c1.1-3,2.2-5.9,1.8-8.9
	h87.7c-0.8,3,0.8,5.9,1.9,8.9C606.7,102.7,634.8,176.1,637,181.9z M562.8,152.6c-4.8-12.5-8.7-22.9-9.2-24c-0.8-2.2-1.5-4.5-2-6.8
	c-0.4,2.3-1.1,4.6-1.8,6.8c-0.3,1-4.2,11.5-8.7,24H562.8z M143.2,87.2H74.8c1.5,3,1.5,5.9,1.5,8.9v85.8c0,3,0,5.9-1.5,8.9h68.4
	c-1.5-3-1.5-5.9-1.5-8.9V96.1C141.7,93.1,141.7,90.1,143.2,87.2z M616,95.4c-0.3-7.3,5.4-13.4,12.7-13.6c0.3,0,0.6,0,0.9,0
	c7.4-0.1,13.5,5.8,13.6,13.1c0,0.2,0,0.3,0,0.5c0.2,7.5-5.7,13.8-13.3,14c-7.5,0.2-13.8-5.7-14-13.3C616,95.9,616,95.6,616,95.4z
	 M618.7,95.4c0,6,4.8,10.9,10.9,11c6,0,10.9-4.8,11-10.9c0-6-4.8-10.9-10.9-11l0,0c-5.8-0.2-10.7,4.3-10.9,10.1
	C618.7,94.9,618.7,95.1,618.7,95.4z M626.9,103.5h-2.4V87.2h6.1c2.9,0.1,5.1,2.4,5.1,5.3c0,2-1.1,3.8-2.9,4.8l3.5,6.3h-2.7l-3.2-5.8
	h-3.5L626.9,103.5L626.9,103.5z M626.9,95.4h3.3c1.6,0.1,3-1.1,3-2.7c0.1-1.6-1.1-3-2.7-3c-0.1,0-0.2,0-0.3,0h-3.3V95.4z"/>
</svg>
